<svg width="12" height="16" viewBox="0 0 12 16" fill="none" xmlns="http://www.w3.org/2000/svg">
<path d="M6.22246 7.98955L11.0037 12.7708C11.3342 13.1013 11.3342 13.6356 11.0037 13.9626L10.2092 14.7571C9.87871 15.0876 9.34434 15.0876 9.01738 14.7571L5.62481 11.3716L2.23574 14.7606C1.90527 15.0911 1.3709 15.0911 1.04395 14.7606L0.245898 13.9661C-0.0845703 13.6356 -0.0845703 13.1013 0.245898 12.7743L5.02715 7.99307C5.35762 7.65908 5.89199 7.65908 6.22246 7.98955ZM5.02715 1.23955L0.245898 6.0208C-0.0845703 6.35127 -0.0845703 6.88565 0.245898 7.2126L1.04043 8.00713C1.3709 8.3376 1.90527 8.3376 2.23223 8.00713L5.62129 4.61807L9.01035 8.00713C9.34082 8.3376 9.8752 8.3376 10.2021 8.00713L10.9967 7.2126C11.3271 6.88213 11.3271 6.34775 10.9967 6.0208L6.21543 1.23955C5.89199 0.909082 5.35762 0.909082 5.02715 1.23955Z" fill="#898F97"/>
</svg>
