<svg width="14" height="14" viewBox="0 0 14 14" fill="none" xmlns="http://www.w3.org/2000/svg">
<path d="M13.6005 9.89296L10.538 8.58046C10.4072 8.52471 10.2618 8.51296 10.1237 8.54699C9.98562 8.58102 9.86232 8.65898 9.77238 8.76914L8.41613 10.4262C6.28762 9.4226 4.57467 7.70964 3.57109 5.58113L5.22813 4.22488C5.33851 4.1351 5.41663 4.01181 5.45067 3.87366C5.48472 3.73552 5.47283 3.59004 5.4168 3.45925L4.1043 0.396754C4.0428 0.255772 3.93405 0.140665 3.79678 0.071281C3.65951 0.00189711 3.50233 -0.0174146 3.35234 0.0166759L0.508594 0.672926C0.363992 0.706318 0.234977 0.787737 0.142607 0.903894C0.0502374 1.02005 -3.33104e-05 1.16409 1.65599e-08 1.3125C1.65599e-08 8.32617 5.68477 14 12.6875 14C12.836 14.0001 12.9801 13.9498 13.0963 13.8575C13.2125 13.7651 13.2939 13.6361 13.3273 13.4914L13.9836 10.6477C14.0175 10.4969 13.9977 10.3391 13.9278 10.2014C13.8579 10.0636 13.7422 9.95458 13.6005 9.89296Z" fill="#646464"/>
</svg>
