<svg width="14" height="12" viewBox="0 0 14 12" fill="none" xmlns="http://www.w3.org/2000/svg">
<path d="M12.6875 0.75H1.3125C0.587617 0.75 0 1.33762 0 2.0625V9.9375C0 10.6624 0.587617 11.25 1.3125 11.25H12.6875C13.4124 11.25 14 10.6624 14 9.9375V2.0625C14 1.33762 13.4124 0.75 12.6875 0.75ZM12.6875 2.0625V3.17826C12.0744 3.67753 11.097 4.45388 9.00739 6.0901C8.54689 6.45232 7.6347 7.32254 7 7.31239C6.36541 7.32264 5.45292 6.45218 4.99261 6.0901C2.90336 4.45412 1.92568 3.67761 1.3125 3.17826V2.0625H12.6875ZM1.3125 9.9375V4.86245C1.93905 5.3615 2.82759 6.0618 4.1819 7.1223C4.77955 7.59275 5.82619 8.63129 7 8.62497C8.16804 8.63129 9.20142 7.60781 9.81786 7.12252C11.1721 6.06204 12.0609 5.36155 12.6875 4.86247V9.9375H1.3125Z" fill="#646464"/>
</svg>
