<svg width="11" height="12" viewBox="0 0 11 12" fill="none" xmlns="http://www.w3.org/2000/svg">
<path d="M10.2143 4.78125H6.67857V1.125C6.67857 0.676348 6.32672 0.3125 5.89286 0.3125H5.10714C4.67328 0.3125 4.32143 0.676348 4.32143 1.125V4.78125H0.785714C0.351853 4.78125 0 5.1451 0 5.59375V6.40625C0 6.8549 0.351853 7.21875 0.785714 7.21875H4.32143V10.875C4.32143 11.3237 4.67328 11.6875 5.10714 11.6875H5.89286C6.32672 11.6875 6.67857 11.3237 6.67857 10.875V7.21875H10.2143C10.6481 7.21875 11 6.8549 11 6.40625V5.59375C11 5.1451 10.6481 4.78125 10.2143 4.78125Z" fill="white"/>
</svg>
