<svg width="48" height="48" viewBox="0 0 48 48" fill="none" xmlns="http://www.w3.org/2000/svg">
<circle cx="24" cy="24" r="24" fill="url(#paint0_linear)"/>
<g clip-path="url(#clip0)">
<path d="M24.5048 18.6094C21.5235 18.6094 19.1188 21.0141 19.1188 23.9953C19.1188 26.9766 21.5235 29.3813 24.5048 29.3813C27.486 29.3813 29.8907 26.9766 29.8907 23.9953C29.8907 21.0141 27.486 18.6094 24.5048 18.6094ZM24.5048 27.4969C22.5782 27.4969 21.0032 25.9266 21.0032 23.9953C21.0032 22.0641 22.5735 20.4938 24.5048 20.4938C26.436 20.4938 28.0063 22.0641 28.0063 23.9953C28.0063 25.9266 26.4313 27.4969 24.5048 27.4969ZM31.3673 18.3891C31.3673 19.0875 30.8048 19.6453 30.111 19.6453C29.4126 19.6453 28.8548 19.0828 28.8548 18.3891C28.8548 17.6953 29.4173 17.1328 30.111 17.1328C30.8048 17.1328 31.3673 17.6953 31.3673 18.3891ZM34.9345 19.6641C34.8548 17.9813 34.4704 16.4906 33.2376 15.2625C32.0095 14.0344 30.5188 13.65 28.836 13.5656C27.1017 13.4672 21.9032 13.4672 20.1688 13.5656C18.4907 13.6453 17.0001 14.0297 15.7673 15.2578C14.5345 16.486 14.1548 17.9766 14.0704 19.6594C13.972 21.3938 13.972 26.5922 14.0704 28.3266C14.1501 30.0094 14.5345 31.5 15.7673 32.7281C17.0001 33.9563 18.486 34.3406 20.1688 34.425C21.9032 34.5235 27.1017 34.5235 28.836 34.425C30.5188 34.3453 32.0095 33.961 33.2376 32.7281C34.4657 31.5 34.8501 30.0094 34.9345 28.3266C35.0329 26.5922 35.0329 21.3985 34.9345 19.6641ZM32.6938 30.1875C32.3282 31.1063 31.6204 31.8141 30.697 32.1844C29.3142 32.7328 26.0329 32.6063 24.5048 32.6063C22.9767 32.6063 19.6907 32.7281 18.3126 32.1844C17.3938 31.8188 16.686 31.111 16.3157 30.1875C15.7673 28.8047 15.8938 25.5235 15.8938 23.9953C15.8938 22.4672 15.772 19.1813 16.3157 17.8031C16.6813 16.8844 17.3892 16.1766 18.3126 15.8063C19.6954 15.2578 22.9767 15.3844 24.5048 15.3844C26.0329 15.3844 29.3188 15.2625 30.697 15.8063C31.6157 16.1719 32.3235 16.8797 32.6938 17.8031C33.2423 19.186 33.1157 22.4672 33.1157 23.9953C33.1157 25.5235 33.2423 28.8094 32.6938 30.1875Z" fill="white"/>
</g>
<defs>
<linearGradient id="paint0_linear" x1="24" y1="0" x2="24" y2="48" gradientUnits="userSpaceOnUse">
<stop stop-color="#FEDA75"/>
<stop offset="0.234375" stop-color="#FA7E1E"/>
<stop offset="0.515625" stop-color="#D62976"/>
<stop offset="0.744792" stop-color="#962FBF"/>
<stop offset="1" stop-color="#4F5BD5"/>
</linearGradient>
<clipPath id="clip0">
<rect width="21" height="24" fill="white" transform="translate(14 12)"/>
</clipPath>
</defs>
</svg>
